<svg version="1.1" viewBox="0.0 0.0 960.0 720.0" fill="none" stroke="none" stroke-linecap="square" stroke-miterlimit="10" xmlns:xlink="http://www.w3.org/1999/xlink" xmlns="http://www.w3.org/2000/svg"><clipPath id="p.0"><path d="m0 0l960.0 0l0 720.0l-960.0 0l0 -720.0z" clip-rule="nonzero"/></clipPath><g clip-path="url(#p.0)"><path fill="#000000" fill-opacity="0.0" d="m0 0l960.0 0l0 720.0l-960.0 0z" fill-rule="evenodd"/><path fill="#cfe2f3" d="m176.17323 360.0l0 0c0 -172.21716 139.6096 -311.82678 311.82678 -311.82678l0 0c82.7016 0 162.01599 32.853085 220.49481 91.33194c58.47888 58.478867 91.33197 137.79323 91.33197 220.49483l0 0c0 172.21716 -139.60962 311.82678 -311.82678 311.82678l0 0c-172.21716 0 -311.82678 -139.60962 -311.82678 -311.82678z" fill-rule="evenodd"/><path stroke="#000000" stroke-width="1.0" stroke-linejoin="round" stroke-linecap="butt" d="m176.17323 360.0l0 0c0 -172.21716 139.6096 -311.82678 311.82678 -311.82678l0 0c82.7016 0 162.01599 32.853085 220.49481 91.33194c58.47888 58.478867 91.33197 137.79323 91.33197 220.49483l0 0c0 172.21716 -139.60962 311.82678 -311.82678 311.82678l0 0c-172.21716 0 -311.82678 -139.60962 -311.82678 -311.82678z" fill-rule="evenodd"/><path fill="#d9ead3" d="m250.3307 360.0l0 0c0 126.842834 102.82646 229.66931 229.6693 229.66931l0 0c60.91211 0 119.329346 -24.197266 162.4007 -67.268616c43.07135 -43.07132 67.268616 -101.48862 67.268616 -162.4007l0 0c0 -126.84285 -102.82648 -229.6693 -229.66931 -229.6693l0 0c-126.842834 0 -229.6693 102.82645 -229.6693 229.6693z" fill-rule="evenodd"/><path stroke="#000000" stroke-width="1.0" stroke-linejoin="round" stroke-linecap="butt" d="m250.3307 360.0l0 0c0 126.842834 102.82646 229.66931 229.6693 229.66931l0 0c60.91211 0 119.329346 -24.197266 162.4007 -67.268616c43.07135 -43.07132 67.268616 -101.48862 67.268616 -162.4007l0 0c0 -126.84285 -102.82648 -229.6693 -229.66931 -229.6693l0 0c-126.842834 0 -229.6693 102.82645 -229.6693 229.6693z" fill-rule="evenodd"/><path fill="#f4cccc" d="m346.25198 360.0l0 0c0 -78.28528 63.462738 -141.74803 141.74802 -141.74803l0 0c37.593933 0 73.64807 14.934128 100.23102 41.517044c26.582886 26.582916 41.51703 62.637085 41.51703 100.23099l0 0c0 78.28528 -63.46277 141.74802 -141.74805 141.74802l0 0c-78.28528 0 -141.74802 -63.462738 -141.74802 -141.74802z" fill-rule="evenodd"/><path stroke="#000000" stroke-width="1.0" stroke-linejoin="round" stroke-linecap="butt" d="m346.25198 360.0l0 0c0 -78.28528 63.462738 -141.74803 141.74802 -141.74803l0 0c37.593933 0 73.64807 14.934128 100.23102 41.517044c26.582886 26.582916 41.51703 62.637085 41.51703 100.23099l0 0c0 78.28528 -63.46277 141.74802 -141.74805 141.74802l0 0c-78.28528 0 -141.74802 -63.462738 -141.74802 -141.74802z" fill-rule="evenodd"/><path fill="#000000" fill-opacity="0.0" d="m445.0239 334.1416l85.95273 0l0 51.716522l-85.95273 0z" fill-rule="evenodd"/><path fill="#000000" d="m466.5664 369.0541q-2.453125 0 -3.875 -0.890625q-1.421875 -0.890625 -2.015625 -2.5q-0.578125 -1.609375 -0.578125 -3.796875l0 -7.78125q0 -2.25 0.578125 -3.859375q0.59375 -1.609375 2.015625 -2.484375q1.421875 -0.890625 3.875 -0.890625q2.40625 0 3.75 0.796875q1.34375 0.78125 1.90625 2.203125q0.5625 1.40625 0.5625 3.25l0 1.859375l-4.671875 0l0 -2.15625q0 -0.640625 -0.0625 -1.21875q-0.0625 -0.59375 -0.390625 -0.984375q-0.3125 -0.390625 -1.09375 -0.390625q-0.75 0 -1.109375 0.40625q-0.359375 0.40625 -0.453125 1.0q-0.09375 0.59375 -0.09375 1.265625l0 10.15625q0 0.71875 0.125 1.328125q0.125 0.59375 0.484375 0.953125q0.359375 0.359375 1.046875 0.359375q0.75 0 1.0625 -0.390625q0.328125 -0.390625 0.40625 -1.0q0.078125 -0.609375 0.078125 -1.25l0 -2.265625l4.671875 0l0 1.859375q0 1.84375 -0.546875 3.296875q-0.546875 1.453125 -1.90625 2.296875q-1.34375 0.828125 -3.765625 0.828125zm15.007416 0q-2.421875 0 -3.84375 -0.84375q-1.40625 -0.859375 -2.015625 -2.453125q-0.609375 -1.59375 -0.609375 -3.8125l0 -8.03125q0 -2.234375 0.609375 -3.796875q0.609375 -1.578125 2.015625 -2.421875q1.421875 -0.84375 3.84375 -0.84375q2.453125 0 3.875 0.84375q1.4375 0.84375 2.046875 2.421875q0.609375 1.5625 0.609375 3.796875l0 8.03125q0 2.21875 -0.609375 3.8125q-0.609375 1.59375 -2.046875 2.453125q-1.421875 0.84375 -3.875 0.84375zm0 -3.375q0.75 0 1.09375 -0.375q0.34375 -0.375 0.453125 -0.953125q0.109375 -0.59375 0.109375 -1.203125l0 -10.40625q0 -0.640625 -0.109375 -1.203125q-0.109375 -0.578125 -0.453125 -0.953125q-0.34375 -0.375 -1.09375 -0.375q-0.6875 0 -1.046875 0.375q-0.34375 0.375 -0.453125 0.953125q-0.09375 0.5625 -0.09375 1.203125l0 10.40625q0 0.609375 0.09375 1.203125q0.09375 0.578125 0.421875 0.953125q0.328125 0.375 1.078125 0.375zm9.432983 3.0625l0 -21.59375l5.953125 0q2.1875 0 3.78125 0.484375q1.59375 0.484375 2.484375 1.71875q0.90625 1.234375 0.90625 3.5q0 1.34375 -0.21875 2.390625q-0.21875 1.03125 -0.796875 1.796875q-0.5625 0.75 -1.625 1.25l2.953125 10.453125l-4.921875 0l-2.375 -9.671875l-1.359375 0l0 9.671875l-4.78125 0zm4.78125 -12.421875l1.328125 0q1.015625 0 1.578125 -0.359375q0.5625 -0.359375 0.78125 -1.03125q0.234375 -0.6875 0.234375 -1.640625q0 -1.390625 -0.515625 -2.15625q-0.5 -0.78125 -1.859375 -0.78125l-1.546875 0l0 5.96875zm11.105774 12.421875l0 -21.59375l9.7031555 0l0 3.25l-4.9219055 0l0 5.359375l3.7500305 0l0 3.3125l-3.7500305 0l0 6.453125l4.9844055 0l0 3.21875l-9.7656555 0z" fill-rule="nonzero"/><path fill="#000000" fill-opacity="0.0" d="m405.7638 264.1181l164.47241 0l0 42.015747l-164.47241 0z" fill-rule="evenodd"/><path fill="#000000" d="m436.2814 291.03812l0 -15.109375l3.28125 0q1.6875 0 2.65625 0.515625q0.984375 0.515625 1.40625 1.546875q0.421875 1.015625 0.421875 2.546875l0 5.5625q0 1.59375 -0.421875 2.703125q-0.421875 1.09375 -1.359375 1.671875q-0.9375 0.5625 -2.53125 0.5625l-3.453125 0zm2.109375 -1.515625l1.203125 0q1.15625 0 1.640625 -0.4375q0.484375 -0.453125 0.578125 -1.3125q0.109375 -0.859375 0.109375 -2.0625l0 -4.921875q0 -1.171875 -0.15625 -1.890625q-0.140625 -0.734375 -0.65625 -1.0625q-0.5 -0.34375 -1.578125 -0.34375l-1.140625 0l0 12.03125zm10.519348 1.671875q-1.1875 0 -1.875 -0.484375q-0.6875 -0.5 -0.984375 -1.390625q-0.28125 -0.890625 -0.28125 -2.109375l0 -3.125q0 -1.21875 0.28125 -2.109375q0.296875 -0.90625 0.984375 -1.390625q0.6875 -0.484375 1.875 -0.484375q1.203125 0 1.875 0.484375q0.6875 0.484375 0.96875 1.390625q0.296875 0.890625 0.296875 2.109375l0 3.125q0 1.21875 -0.296875 2.109375q-0.28125 0.890625 -0.96875 1.390625q-0.671875 0.484375 -1.875 0.484375zm0 -1.484375q0.578125 0 0.8125 -0.328125q0.234375 -0.34375 0.28125 -0.890625q0.046875 -0.546875 0.046875 -1.140625l0 -3.390625q0 -0.609375 -0.046875 -1.140625q-0.046875 -0.546875 -0.28125 -0.890625q-0.234375 -0.34375 -0.8125 -0.34375q-0.578125 0 -0.828125 0.34375q-0.234375 0.34375 -0.28125 0.890625q-0.046875 0.53125 -0.046875 1.140625l0 3.390625q0 0.59375 0.046875 1.140625q0.046875 0.546875 0.28125 0.890625q0.25 0.328125 0.828125 0.328125zm4.9601746 1.328125l0 -10.78125l1.859375 0l0 1.03125q0.53125 -0.625 1.1875 -0.921875q0.65625 -0.296875 1.34375 -0.296875q0.59375 0 1.0625 0.296875q0.484375 0.296875 0.6875 1.0625q0.578125 -0.703125 1.25 -1.03125q0.6875 -0.328125 1.4375 -0.328125q0.53125 0 0.953125 0.25q0.4375 0.25 0.6875 0.8125q0.265625 0.546875 0.265625 1.4375l0 8.46875l-1.828125 0l0 -8.34375q0 -0.78125 -0.25 -1.046875q-0.25 -0.265625 -0.6875 -0.265625q-0.40625 0 -0.859375 0.234375q-0.4375 0.21875 -0.8125 0.640625q0 0.0625 0 0.140625q0 0.078125 0 0.171875l0 8.46875l-1.828125 0l0 -8.34375q0 -0.78125 -0.25 -1.046875q-0.25 -0.265625 -0.6875 -0.265625q-0.40625 0 -0.84375 0.234375q-0.4375 0.21875 -0.828125 0.640625l0 8.78125l-1.859375 0zm14.639374 0.15625q-0.640625 0 -1.125 -0.359375q-0.484375 -0.375 -0.765625 -0.9375q-0.28125 -0.578125 -0.28125 -1.203125q0 -1.015625 0.328125 -1.703125q0.34375 -0.6875 0.921875 -1.15625q0.59375 -0.484375 1.359375 -0.84375q0.78125 -0.359375 1.640625 -0.6875l0 -0.765625q0 -0.65625 -0.078125 -1.078125q-0.0625 -0.4375 -0.296875 -0.640625q-0.234375 -0.21875 -0.703125 -0.21875q-0.40625 0 -0.65625 0.1875q-0.25 0.1875 -0.375 0.53125q-0.109375 0.34375 -0.109375 0.8125l0 0.53125l-1.96875 -0.0625q0.03125 -1.796875 0.8125 -2.640625q0.78125 -0.859375 2.421875 -0.859375q1.609375 0 2.28125 0.890625q0.671875 0.875 0.671875 2.53125l0 4.921875q0 0.5 0.03125 0.96875q0.03125 0.46875 0.078125 0.875q0.046875 0.390625 0.078125 0.75l-1.828125 0q-0.0625 -0.296875 -0.140625 -0.75q-0.078125 -0.46875 -0.125 -0.828125q-0.1875 0.625 -0.71875 1.1875q-0.53125 0.546875 -1.453125 0.546875zm0.78125 -1.71875q0.296875 0 0.546875 -0.171875q0.265625 -0.171875 0.46875 -0.375q0.21875 -0.21875 0.28125 -0.359375l0 -3.046875q-0.453125 0.25 -0.875 0.515625q-0.40625 0.265625 -0.71875 0.5625q-0.296875 0.28125 -0.484375 0.640625q-0.171875 0.359375 -0.171875 0.828125q0 0.65625 0.234375 1.03125q0.25 0.375 0.71875 0.375zm5.353821 1.5625l0 -10.78125l2.0 0l0 10.78125l-2.0 0zm0 -12.390625l0 -2.09375l2.0 0l0 2.09375l-2.0 0zm4.131653 12.390625l0 -10.78125l2.0 0l0 1.0625q0.546875 -0.5 1.1875 -0.859375q0.65625 -0.359375 1.453125 -0.359375q0.640625 0 0.984375 0.34375q0.359375 0.328125 0.484375 0.84375q0.140625 0.5 0.140625 1.015625l0 8.734375l-1.984375 0l0 -8.15625q0 -0.578125 -0.171875 -0.890625q-0.171875 -0.3125 -0.6875 -0.3125q-0.34375 0 -0.703125 0.203125q-0.359375 0.1875 -0.703125 0.46875l0 8.6875l-2.0 0zm12.634247 0l0 -15.109375l5.859375 0l0 1.5625l-3.75 0l0 5.0l3.046875 0l0 1.5l-3.046875 0l0 5.53125l3.796875 0l0 1.515625l-5.90625 0zm7.4212036 0l0 -10.78125l2.0 0l0 1.0625q0.546875 -0.5 1.1875 -0.859375q0.65625 -0.359375 1.453125 -0.359375q0.640625 0 0.984375 0.34375q0.359375 0.328125 0.484375 0.84375q0.140625 0.5 0.140625 1.015625l0 8.734375l-1.984375 0l0 -8.15625q0 -0.578125 -0.171875 -0.890625q-0.171875 -0.3125 -0.6875 -0.3125q-0.34375 0 -0.703125 0.203125q-0.359375 0.1875 -0.703125 0.46875l0 8.6875l-2.0 0zm11.065094 0.15625q-0.828125 0 -1.34375 -0.3125q-0.515625 -0.328125 -0.75 -0.90625q-0.234375 -0.578125 -0.234375 -1.359375l0 -7.03125l-1.140625 0l0 -1.328125l1.140625 0l0 -3.15625l2.0 0l0 3.15625l1.734375 0l0 1.328125l-1.734375 0l0 6.890625q0 0.640625 0.203125 0.921875q0.203125 0.265625 0.78125 0.265625q0.15625 0 0.34375 -0.015625q0.203125 -0.03125 0.390625 -0.046875l0 1.46875q-0.375 0.0625 -0.703125 0.09375q-0.3125 0.03125 -0.6875 0.03125zm3.0117493 -0.15625l0 -10.78125l2.0 0l0 10.78125l-2.0 0zm0 -12.390625l0 -2.09375l2.0 0l0 2.09375l-2.0 0zm7.006653 12.546875q-0.828125 0 -1.34375 -0.3125q-0.515625 -0.328125 -0.75 -0.90625q-0.234375 -0.578125 -0.234375 -1.359375l0 -7.03125l-1.140625 0l0 -1.328125l1.140625 0l0 -3.15625l2.0 0l0 3.15625l1.734375 0l0 1.328125l-1.734375 0l0 6.890625q0 0.640625 0.203125 0.921875q0.203125 0.265625 0.78125 0.265625q0.15625 0 0.34375 -0.015625q0.203125 -0.03125 0.390625 -0.046875l0 1.46875q-0.375 0.0625 -0.703125 0.09375q-0.3125 0.03125 -0.6875 0.03125zm3.0117798 -0.15625l0 -10.78125l2.0 0l0 10.78125l-2.0 0zm0 -12.390625l0 -2.09375l2.0 0l0 2.09375l-2.0 0zm7.131653 12.546875q-1.28125 0 -1.96875 -0.5q-0.6875 -0.5 -0.96875 -1.453125q-0.265625 -0.96875 -0.265625 -2.359375l0 -2.46875q0 -1.4375 0.28125 -2.390625q0.28125 -0.953125 0.984375 -1.4375q0.703125 -0.484375 1.9375 -0.484375q1.359375 0 2.0 0.5625q0.640625 0.5625 0.84375 1.625q0.203125 1.046875 0.203125 2.515625l0 0.875l-4.25 0l0 2.171875q0 0.65625 0.125 1.0625q0.125 0.40625 0.390625 0.609375q0.265625 0.1875 0.703125 0.1875q0.4375 0 0.671875 -0.203125q0.234375 -0.21875 0.3125 -0.625q0.09375 -0.40625 0.09375 -0.9375l0 -0.65625l1.9375 0l0 0.40625q0 1.625 -0.6875 2.5625q-0.6875 0.9375 -2.34375 0.9375zm-1.203125 -6.59375l2.296875 0l0 -0.96875q0 -0.671875 -0.078125 -1.125q-0.078125 -0.46875 -0.3125 -0.6875q-0.21875 -0.234375 -0.734375 -0.234375q-0.484375 0 -0.734375 0.21875q-0.25 0.21875 -0.34375 0.75q-0.09375 0.53125 -0.09375 1.46875l0 0.578125zm8.557373 6.59375q-1.3125 0 -2.125 -0.828125q-0.796875 -0.84375 -0.90625 -2.203125l1.65625 -0.5q0.15625 1.03125 0.5 1.546875q0.359375 0.5 1.046875 0.5q0.546875 0 0.828125 -0.296875q0.28125 -0.3125 0.28125 -0.84375q0 -0.453125 -0.21875 -0.828125q-0.203125 -0.375 -0.65625 -0.765625l-1.859375 -1.59375q-0.546875 -0.484375 -0.9375 -1.078125q-0.375 -0.59375 -0.375 -1.546875q0 -0.859375 0.34375 -1.4375q0.34375 -0.59375 0.96875 -0.90625q0.625 -0.3125 1.453125 -0.3125q1.296875 0 1.96875 0.84375q0.6875 0.828125 0.78125 2.0l-1.34375 0.5q-0.078125 -0.5625 -0.234375 -0.984375q-0.140625 -0.421875 -0.40625 -0.640625q-0.25 -0.234375 -0.6875 -0.234375q-0.484375 0 -0.78125 0.328125q-0.28125 0.3125 -0.28125 0.765625q0 0.28125 0.125 0.5625q0.125 0.265625 0.421875 0.515625l1.90625 1.765625q0.390625 0.34375 0.734375 0.765625q0.34375 0.40625 0.5625 0.9375q0.234375 0.515625 0.234375 1.203125q0 0.90625 -0.375 1.53125q-0.375 0.609375 -1.046875 0.921875q-0.671875 0.3125 -1.578125 0.3125z" fill-rule="nonzero"/><path fill="#000000" fill-opacity="0.0" d="m346.3517 405.80316l275.40158 0l0 42.015747l-275.40158 0z" fill-rule="evenodd"/><path fill="#000000" d="m379.75806 432.72314l0 -15.109375l2.078125 0l0 15.109375l-2.078125 0zm4.34552 0l0 -10.78125l2.0 0l0 1.0625q0.546875 -0.5 1.1875 -0.859375q0.65625 -0.359375 1.453125 -0.359375q0.640625 0 0.984375 0.34375q0.359375 0.328125 0.484375 0.84375q0.140625 0.5 0.140625 1.015625l0 8.734375l-1.984375 0l0 -8.15625q0 -0.578125 -0.171875 -0.890625q-0.171875 -0.3125 -0.6875 -0.3125q-0.34375 0 -0.703125 0.203125q-0.359375 0.1875 -0.703125 0.46875l0 8.6875l-2.0 0zm11.065094 0.15625q-0.828125 0 -1.34375 -0.3125q-0.515625 -0.328125 -0.75 -0.90625q-0.234375 -0.578125 -0.234375 -1.359375l0 -7.03125l-1.140625 0l0 -1.328125l1.140625 0l0 -3.15625l2.0 0l0 3.15625l1.734375 0l0 1.328125l-1.734375 0l0 6.890625q0 0.640625 0.203125 0.921875q0.203125 0.265625 0.78125 0.265625q0.15625 0 0.34375 -0.015625q0.203125 -0.03125 0.390625 -0.046875l0 1.46875q-0.375 0.0625 -0.703125 0.09375q-0.3125 0.03125 -0.6875 0.03125zm5.8711243 0q-1.28125 0 -1.96875 -0.5q-0.6875 -0.5 -0.96875 -1.453125q-0.265625 -0.96875 -0.265625 -2.359375l0 -2.46875q0 -1.4375 0.28125 -2.390625q0.28125 -0.953125 0.984375 -1.4375q0.703125 -0.484375 1.9375 -0.484375q1.359375 0 2.0 0.5625q0.640625 0.5625 0.84375 1.625q0.203125 1.046875 0.203125 2.515625l0 0.875l-4.25 0l0 2.171875q0 0.65625 0.125 1.0625q0.125 0.40625 0.390625 0.609375q0.265625 0.1875 0.703125 0.1875q0.4375 0 0.671875 -0.203125q0.234375 -0.21875 0.3125 -0.625q0.09375 -0.40625 0.09375 -0.9375l0 -0.65625l1.9375 0l0 0.40625q0 1.625 -0.6875 2.5625q-0.6875 0.9375 -2.34375 0.9375zm-1.203125 -6.59375l2.296875 0l0 -0.96875q0 -0.671875 -0.078125 -1.125q-0.078125 -0.46875 -0.3125 -0.6875q-0.21875 -0.234375 -0.734375 -0.234375q-0.484375 0 -0.734375 0.21875q-0.25 0.21875 -0.34375 0.75q-0.09375 0.53125 -0.09375 1.46875l0 0.578125zm6.1199036 6.4375l0 -10.78125l2.0 0l0 1.53125q0.59375 -1.0 1.1875 -1.328125q0.59375 -0.328125 1.203125 -0.328125q0.0625 0 0.125 0q0.078125 0 0.1875 0.015625l0 2.203125q-0.21875 -0.09375 -0.515625 -0.15625q-0.28125 -0.078125 -0.578125 -0.078125q-0.46875 0 -0.859375 0.21875q-0.375 0.21875 -0.75 0.828125l0 7.875l-2.0 0zm6.5667725 0l0 -9.3125l-1.28125 0l0 -1.46875l1.28125 0l0 -0.5625q0 -1.0 0.15625 -1.71875q0.15625 -0.71875 0.65625 -1.109375q0.515625 -0.40625 1.515625 -0.40625q0.375 0 0.65625 0.03125q0.296875 0.03125 0.65625 0.109375l0 1.453125q-0.171875 -0.03125 -0.375 -0.0625q-0.203125 -0.03125 -0.375 -0.03125q-0.578125 0 -0.734375 0.390625q-0.15625 0.375 -0.15625 1.015625l0 0.890625l1.640625 0l0 1.46875l-1.640625 0l0 9.3125l-2.0 0zm6.6668396 0.15625q-0.640625 0 -1.125 -0.359375q-0.484375 -0.375 -0.765625 -0.9375q-0.28125 -0.578125 -0.28125 -1.203125q0 -1.015625 0.328125 -1.703125q0.34375 -0.6875 0.921875 -1.15625q0.59375 -0.484375 1.359375 -0.84375q0.78125 -0.359375 1.640625 -0.6875l0 -0.765625q0 -0.65625 -0.078125 -1.078125q-0.0625 -0.4375 -0.296875 -0.640625q-0.234375 -0.21875 -0.703125 -0.21875q-0.40625 0 -0.65625 0.1875q-0.25 0.1875 -0.375 0.53125q-0.109375 0.34375 -0.109375 0.8125l0 0.53125l-1.96875 -0.0625q0.03125 -1.796875 0.8125 -2.640625q0.78125 -0.859375 2.421875 -0.859375q1.609375 0 2.28125 0.890625q0.671875 0.875 0.671875 2.53125l0 4.921875q0 0.5 0.03125 0.96875q0.03125 0.46875 0.078125 0.875q0.046875 0.390625 0.078125 0.75l-1.828125 0q-0.0625 -0.296875 -0.140625 -0.75q-0.078125 -0.46875 -0.125 -0.828125q-0.1875 0.625 -0.71875 1.1875q-0.53125 0.546875 -1.453125 0.546875zm0.78125 -1.71875q0.296875 0 0.546875 -0.171875q0.265625 -0.171875 0.46875 -0.375q0.21875 -0.21875 0.28125 -0.359375l0 -3.046875q-0.453125 0.25 -0.875 0.515625q-0.40625 0.265625 -0.71875 0.5625q-0.296875 0.28125 -0.484375 0.640625q-0.171875 0.359375 -0.171875 0.828125q0 0.65625 0.234375 1.03125q0.25 0.375 0.71875 0.375zm8.166321 1.71875q-1.328125 0 -2.015625 -0.53125q-0.671875 -0.546875 -0.90625 -1.515625q-0.234375 -0.96875 -0.234375 -2.25l0 -2.484375q0 -1.359375 0.234375 -2.3125q0.25 -0.96875 0.9375 -1.484375q0.6875 -0.515625 1.984375 -0.515625q1.171875 0 1.8125 0.390625q0.65625 0.375 0.890625 1.140625q0.25 0.75 0.25 1.875l0 0.625l-1.8125 0l0 -0.65625q0 -0.703125 -0.09375 -1.109375q-0.09375 -0.40625 -0.34375 -0.59375q-0.234375 -0.1875 -0.6875 -0.1875q-0.484375 0 -0.75 0.21875q-0.25 0.21875 -0.34375 0.75q-0.078125 0.53125 -0.078125 1.453125l0 3.390625q0 1.390625 0.265625 1.859375q0.265625 0.453125 0.9375 0.453125q0.5 0 0.734375 -0.234375q0.234375 -0.234375 0.296875 -0.65625q0.0625 -0.4375 0.0625 -0.96875l0 -0.875l1.8125 0l0 0.734375q0 1.09375 -0.25 1.875q-0.25 0.78125 -0.90625 1.203125q-0.640625 0.40625 -1.796875 0.40625zm7.7145996 0q-1.28125 0 -1.96875 -0.5q-0.6875 -0.5 -0.96875 -1.453125q-0.265625 -0.96875 -0.265625 -2.359375l0 -2.46875q0 -1.4375 0.28125 -2.390625q0.28125 -0.953125 0.984375 -1.4375q0.703125 -0.484375 1.9375 -0.484375q1.359375 0 2.0 0.5625q0.640625 0.5625 0.84375 1.625q0.203125 1.046875 0.203125 2.515625l0 0.875l-4.25 0l0 2.171875q0 0.65625 0.125 1.0625q0.125 0.40625 0.390625 0.609375q0.265625 0.1875 0.703125 0.1875q0.4375 0 0.671875 -0.203125q0.234375 -0.21875 0.3125 -0.625q0.09375 -0.40625 0.09375 -0.9375l0 -0.65625l1.9375 0l0 0.40625q0 1.625 -0.6875 2.5625q-0.6875 0.9375 -2.34375 0.9375zm-1.203125 -6.59375l2.296875 0l0 -0.96875q0 -0.671875 -0.078125 -1.125q-0.078125 -0.46875 -0.3125 -0.6875q-0.21875 -0.234375 -0.734375 -0.234375q-0.484375 0 -0.734375 0.21875q-0.25 0.21875 -0.34375 0.75q-0.09375 0.53125 -0.09375 1.46875l0 0.578125zm8.557404 6.59375q-1.3125 0 -2.125 -0.828125q-0.796875 -0.84375 -0.90625 -2.203125l1.65625 -0.5q0.15625 1.03125 0.5 1.546875q0.359375 0.5 1.046875 0.5q0.546875 0 0.828125 -0.296875q0.28125 -0.3125 0.28125 -0.84375q0 -0.453125 -0.21875 -0.828125q-0.203125 -0.375 -0.65625 -0.765625l-1.859375 -1.59375q-0.546875 -0.484375 -0.9375 -1.078125q-0.375 -0.59375 -0.375 -1.546875q0 -0.859375 0.34375 -1.4375q0.34375 -0.59375 0.96875 -0.90625q0.625 -0.3125 1.453125 -0.3125q1.296875 0 1.96875 0.84375q0.6875 0.828125 0.78125 2.0l-1.34375 0.5q-0.078125 -0.5625 -0.234375 -0.984375q-0.140625 -0.421875 -0.40625 -0.640625q-0.25 -0.234375 -0.6875 -0.234375q-0.484375 0 -0.78125 0.328125q-0.28125 0.3125 -0.28125 0.765625q0 0.28125 0.125 0.5625q0.125 0.265625 0.421875 0.515625l1.90625 1.765625q0.390625 0.34375 0.734375 0.765625q0.34375 0.40625 0.5625 0.9375q0.234375 0.515625 0.234375 1.203125q0 0.90625 -0.375 1.53125q-0.375 0.609375 -1.046875 0.921875q-0.671875 0.3125 -1.578125 0.3125zm120.000824 -0.15625l0 -15.109375l3.28125 0q1.6875 0 2.65625 0.515625q0.984375 0.515625 1.40625 1.546875q0.421875 1.015625 0.421875 2.546875l0 5.5625q0 1.59375 -0.421875 2.703125q-0.421875 1.09375 -1.359375 1.671875q-0.9375 0.5625 -2.53125 0.5625l-3.453125 0zm2.109375 -1.515625l1.203125 0q1.15625 0 1.640625 -0.4375q0.484375 -0.453125 0.578125 -1.3125q0.109375 -0.859375 0.109375 -2.0625l0 -4.921875q0 -1.171875 -0.15625 -1.890625q-0.140625 -0.734375 -0.65625 -1.0625q-0.5 -0.34375 -1.578125 -0.34375l-1.140625 0l0 12.03125zm9.378723 1.515625l0 -13.546875l-2.546875 0l0 -1.5625l7.140625 0l0 1.5625l-2.484375 0l0 13.546875l-2.109375 0zm9.908142 0.171875q-1.53125 0 -2.453125 -0.59375q-0.90625 -0.609375 -1.296875 -1.71875q-0.390625 -1.109375 -0.390625 -2.59375l0 -5.734375q0 -1.484375 0.40625 -2.5625q0.40625 -1.078125 1.296875 -1.640625q0.90625 -0.5625 2.4375 -0.5625q1.53125 0 2.421875 0.578125q0.90625 0.578125 1.296875 1.640625q0.40625 1.0625 0.40625 2.546875l0 5.75q0 1.46875 -0.40625 2.578125q-0.390625 1.09375 -1.296875 1.703125q-0.890625 0.609375 -2.421875 0.609375zm0 -1.671875q0.84375 0 1.265625 -0.34375q0.4375 -0.34375 0.578125 -0.96875q0.15625 -0.625 0.15625 -1.453125l0 -6.625q0 -0.84375 -0.15625 -1.453125q-0.140625 -0.609375 -0.578125 -0.921875q-0.421875 -0.328125 -1.265625 -0.328125q-0.828125 0 -1.265625 0.328125q-0.4375 0.3125 -0.59375 0.921875q-0.15625 0.609375 -0.15625 1.453125l0 6.625q0 0.828125 0.15625 1.453125q0.15625 0.625 0.59375 0.96875q0.4375 0.34375 1.265625 0.34375z" fill-rule="nonzero"/><path fill="#000000" fill-opacity="0.0" d="m401.81628 162.74934l164.47241 0l0 42.015747l-164.47241 0z" fill-rule="evenodd"/><path fill="#000000" d="m417.8908 189.66934l0 -15.109375l3.34375 0l0 15.109375l-3.34375 0zm5.5999146 0l0 -15.109375l2.34375 0l3.09375 7.28125l0 -7.28125l2.765625 0l0 15.109375l-2.25 0l-3.109375 -7.828125l0 7.828125l-2.84375 0zm10.466156 0l0 -15.109375l6.53125 0l0 2.25l-3.203125 0l0 3.8125l2.78125 0l0 2.328125l-2.78125 0l0 6.71875l-3.328125 0zm8.003479 0l0 -15.109375l4.15625 0q1.53125 0 2.640625 0.34375q1.125 0.328125 1.75 1.203125q0.625 0.859375 0.625 2.4375q0 0.9375 -0.15625 1.671875q-0.140625 0.71875 -0.546875 1.25q-0.390625 0.53125 -1.140625 0.890625l2.0625 7.3125l-3.4375 0l-1.671875 -6.765625l-0.953125 0l0 6.765625l-3.328125 0zm3.328125 -8.6875l0.9375 0q0.703125 0 1.09375 -0.25q0.40625 -0.265625 0.5625 -0.734375q0.15625 -0.484375 0.15625 -1.15625q0 -0.96875 -0.359375 -1.5q-0.34375 -0.546875 -1.296875 -0.546875l-1.09375 0l0 4.1875zm7.131256 8.6875l2.859375 -15.109375l3.796875 0l2.828125 15.109375l-3.078125 0l-0.515625 -3.1875l-2.21875 0l-0.515625 3.1875l-3.15625 0zm3.96875 -5.1875l1.609375 0l-0.796875 -5.890625l-0.8125 5.890625zm10.895874 5.40625q-1.40625 0 -2.359375 -0.5q-0.953125 -0.5 -1.4375 -1.546875q-0.484375 -1.0625 -0.546875 -2.75l2.859375 -0.421875q0.015625 0.96875 0.171875 1.578125q0.15625 0.59375 0.4375 0.859375q0.296875 0.25 0.71875 0.25q0.515625 0 0.671875 -0.34375q0.15625 -0.359375 0.15625 -0.765625q0 -0.921875 -0.453125 -1.5625q-0.4375 -0.65625 -1.203125 -1.296875l-1.3125 -1.140625q-0.84375 -0.734375 -1.4375 -1.65625q-0.59375 -0.921875 -0.59375 -2.28125q0 -1.921875 1.140625 -2.9375q1.140625 -1.015625 3.09375 -1.015625q1.21875 0 1.953125 0.40625q0.734375 0.40625 1.109375 1.078125q0.390625 0.65625 0.53125 1.390625q0.140625 0.734375 0.15625 1.40625l-2.875 0.359375q-0.015625 -0.671875 -0.078125 -1.15625q-0.0625 -0.5 -0.265625 -0.765625q-0.203125 -0.28125 -0.640625 -0.28125q-0.46875 0 -0.6875 0.390625q-0.203125 0.390625 -0.203125 0.78125q0 0.84375 0.390625 1.375q0.40625 0.53125 1.0625 1.109375l1.25 1.109375q0.984375 0.828125 1.65625 1.890625q0.6875 1.0625 0.6875 2.640625q0 1.0625 -0.484375 1.9375q-0.484375 0.859375 -1.375 1.359375q-0.875 0.5 -2.09375 0.5zm6.9487 -0.21875l0 -12.625l-2.28125 0l0 -2.484375l7.890625 0l0 2.484375l-2.25 0l0 12.625l-3.359375 0zm6.9426575 0l0 -15.109375l4.15625 0q1.53125 0 2.640625 0.34375q1.125 0.328125 1.75 1.203125q0.625 0.859375 0.625 2.4375q0 0.9375 -0.15625 1.671875q-0.140625 0.71875 -0.546875 1.25q-0.390625 0.53125 -1.140625 0.890625l2.0625 7.3125l-3.4375 0l-1.671875 -6.765625l-0.953125 0l0 6.765625l-3.328125 0zm3.328125 -8.6875l0.9375 0q0.703125 0 1.09375 -0.25q0.40625 -0.265625 0.5625 -0.734375q0.15625 -0.484375 0.15625 -1.15625q0 -0.96875 -0.359375 -1.5q-0.34375 -0.546875 -1.296875 -0.546875l-1.09375 0l0 4.1875zm12.131653 8.90625q-1.734375 0 -2.71875 -0.5625q-0.96875 -0.578125 -1.375 -1.65625q-0.390625 -1.09375 -0.390625 -2.6875l0 -10.421875l3.3125 0l0 10.9375q0 0.453125 0.0625 0.921875q0.078125 0.46875 0.328125 0.765625q0.265625 0.296875 0.78125 0.296875q0.546875 0 0.78125 -0.296875q0.25 -0.296875 0.3125 -0.765625q0.0625 -0.46875 0.0625 -0.921875l0 -10.9375l3.328125 0l0 10.421875q0 1.59375 -0.40625 2.6875q-0.40625 1.078125 -1.375 1.65625q-0.96875 0.5625 -2.703125 0.5625zm10.938629 0q-1.71875 0 -2.71875 -0.625q-1.0 -0.625 -1.40625 -1.75q-0.40625 -1.125 -0.40625 -2.65625l0 -5.453125q0 -1.5625 0.40625 -2.6875q0.40625 -1.125 1.40625 -1.734375q1.0 -0.625 2.71875 -0.625q1.671875 0 2.609375 0.546875q0.953125 0.546875 1.34375 1.546875q0.390625 0.984375 0.390625 2.265625l0 1.3125l-3.265625 0l0 -1.515625q0 -0.453125 -0.046875 -0.859375q-0.046875 -0.40625 -0.28125 -0.671875q-0.21875 -0.28125 -0.75 -0.28125q-0.53125 0 -0.78125 0.28125q-0.25 0.28125 -0.3125 0.703125q-0.0625 0.421875 -0.0625 0.890625l0 7.09375q0 0.515625 0.078125 0.9375q0.078125 0.40625 0.328125 0.671875q0.265625 0.25 0.75 0.25q0.515625 0 0.734375 -0.265625q0.234375 -0.28125 0.28125 -0.703125q0.0625 -0.4375 0.0625 -0.890625l0 -1.578125l3.265625 0l0 1.3125q0 1.28125 -0.390625 2.296875q-0.375 1.015625 -1.328125 1.609375q-0.9375 0.578125 -2.625 0.578125zm7.5346985 -0.21875l0 -12.625l-2.28125 0l0 -2.484375l7.890625 0l0 2.484375l-2.25 0l0 12.625l-3.359375 0zm11.302063 0.21875q-1.734375 0 -2.71875 -0.5625q-0.96875 -0.578125 -1.375 -1.65625q-0.390625 -1.09375 -0.390625 -2.6875l0 -10.421875l3.3125 0l0 10.9375q0 0.453125 0.0625 0.921875q0.078125 0.46875 0.328125 0.765625q0.265625 0.296875 0.78125 0.296875q0.546875 0 0.78125 -0.296875q0.25 -0.296875 0.3125 -0.765625q0.0625 -0.46875 0.0625 -0.921875l0 -10.9375l3.328125 0l0 10.421875q0 1.59375 -0.40625 2.6875q-0.40625 1.078125 -1.375 1.65625q-0.96875 0.5625 -2.703125 0.5625zm6.6104736 -0.21875l0 -15.109375l4.15625 0q1.53125 0 2.640625 0.34375q1.125 0.328125 1.75 1.203125q0.625 0.859375 0.625 2.4375q0 0.9375 -0.15625 1.671875q-0.140625 0.71875 -0.546875 1.25q-0.390625 0.53125 -1.140625 0.890625l2.0625 7.3125l-3.4375 0l-1.671875 -6.765625l-0.953125 0l0 6.765625l-3.328125 0zm3.328125 -8.6875l0.9375 0q0.703125 0 1.09375 -0.25q0.40625 -0.265625 0.5625 -0.734375q0.15625 -0.484375 0.15625 -1.15625q0 -0.96875 -0.359375 -1.5q-0.34375 -0.546875 -1.296875 -0.546875l-1.09375 0l0 4.1875zm7.7910156 8.6875l0 -15.109375l6.78125 0l0 2.28125l-3.453125 0l0 3.75l2.640625 0l0 2.3125l-2.640625 0l0 4.515625l3.5 0l0 2.25l-6.828125 0z" fill-rule="nonzero"/><path fill="#000000" fill-opacity="0.0" d="m420.15747 69.28346l135.68506 0l0 42.015747l-135.68506 0z" fill-rule="evenodd"/><path fill="#000000" d="m433.88437 96.20346l0 -15.109375l5.0625 0q1.375 0 2.25 0.515625q0.875 0.515625 1.296875 1.5q0.4375 0.96875 0.4375 2.359375q0 1.765625 -0.578125 2.6875q-0.578125 0.921875 -1.578125 1.28125q-0.984375 0.34375 -2.21875 0.34375l-1.34375 0l0 6.421875l-3.328125 0zm3.328125 -8.75l1.125 0q0.609375 0 0.921875 -0.21875q0.328125 -0.234375 0.421875 -0.671875q0.109375 -0.453125 0.109375 -1.140625q0 -0.578125 -0.09375 -1.015625q-0.078125 -0.4375 -0.390625 -0.703125q-0.3125 -0.265625 -0.984375 -0.265625l-1.109375 0l0 4.015625zm7.1752625 8.75l0 -15.109375l4.15625 0q1.53125 0 2.640625 0.34375q1.125 0.328125 1.75 1.203125q0.625 0.859375 0.625 2.4375q0 0.9375 -0.15625 1.671875q-0.140625 0.71875 -0.546875 1.25q-0.390625 0.53125 -1.140625 0.890625l2.0625 7.3125l-3.4375 0l-1.671875 -6.765625l-0.953125 0l0 6.765625l-3.328125 0zm3.328125 -8.6875l0.9375 0q0.703125 0 1.09375 -0.25q0.40625 -0.265625 0.5625 -0.734375q0.15625 -0.484375 0.15625 -1.15625q0 -0.96875 -0.359375 -1.5q-0.34375 -0.546875 -1.296875 -0.546875l-1.09375 0l0 4.1875zm7.790985 8.6875l0 -15.109375l6.78125 0l0 2.28125l-3.453125 0l0 3.75l2.640625 0l0 2.3125l-2.640625 0l0 4.515625l3.5 0l0 2.25l-6.828125 0zm12.339325 0.21875q-1.40625 0 -2.359375 -0.5q-0.953125 -0.5 -1.4375 -1.546875q-0.484375 -1.0625 -0.546875 -2.75l2.859375 -0.421875q0.015625 0.96875 0.171875 1.578125q0.15625 0.59375 0.4375 0.859375q0.296875 0.25 0.71875 0.25q0.515625 0 0.671875 -0.34375q0.15625 -0.359375 0.15625 -0.765625q0 -0.921875 -0.453125 -1.5625q-0.4375 -0.65625 -1.203125 -1.296875l-1.3125 -1.140625q-0.84375 -0.734375 -1.4375 -1.65625q-0.59375 -0.921875 -0.59375 -2.28125q0 -1.921875 1.140625 -2.9375q1.140625 -1.015625 3.09375 -1.015625q1.21875 0 1.953125 0.40625q0.734375 0.40625 1.109375 1.078125q0.390625 0.65625 0.53125 1.390625q0.140625 0.734375 0.15625 1.40625l-2.875 0.359375q-0.015625 -0.671875 -0.078125 -1.15625q-0.0625 -0.5 -0.265625 -0.765625q-0.203125 -0.28125 -0.640625 -0.28125q-0.46875 0 -0.6875 0.390625q-0.203125 0.390625 -0.203125 0.78125q0 0.84375 0.390625 1.375q0.40625 0.53125 1.0625 1.109375l1.25 1.109375q0.984375 0.828125 1.65625 1.890625q0.6875 1.0625 0.6875 2.640625q0 1.0625 -0.484375 1.9375q-0.484375 0.859375 -1.375 1.359375q-0.875 0.5 -2.09375 0.5zm5.2906494 -0.21875l0 -15.109375l6.78125 0l0 2.28125l-3.453125 0l0 3.75l2.640625 0l0 2.3125l-2.640625 0l0 4.515625l3.5 0l0 2.25l-6.828125 0zm8.339355 0l0 -15.109375l2.34375 0l3.09375 7.28125l0 -7.28125l2.765625 0l0 15.109375l-2.25 0l-3.109375 -7.828125l0 7.828125l-2.84375 0zm11.825531 0l0 -12.625l-2.28125 0l0 -2.484375l7.890625 0l0 2.484375l-2.25 0l0 12.625l-3.359375 0zm5.5362854 0l2.859375 -15.109375l3.796875 0l2.828125 15.109375l-3.078125 0l-0.515625 -3.1875l-2.21875 0l-0.515625 3.1875l-3.15625 0zm3.96875 -5.1875l1.609375 0l-0.796875 -5.890625l-0.8125 5.890625zm7.6019287 5.1875l0 -12.625l-2.28125 0l0 -2.484375l7.890625 0l0 2.484375l-2.25 0l0 12.625l-3.359375 0zm6.958252 0l0 -15.109375l3.34375 0l0 15.109375l-3.34375 0zm9.92804 0.21875q-1.703125 0 -2.703125 -0.59375q-0.984375 -0.59375 -1.40625 -1.703125q-0.421875 -1.125 -0.421875 -2.671875l0 -5.625q0 -1.5625 0.421875 -2.65625q0.421875 -1.109375 1.40625 -1.6875q1.0 -0.59375 2.703125 -0.59375q1.703125 0 2.703125 0.59375q1.0 0.578125 1.421875 1.6875q0.4375 1.09375 0.4375 2.65625l0 5.625q0 1.546875 -0.4375 2.671875q-0.421875 1.109375 -1.421875 1.703125q-1.0 0.59375 -2.703125 0.59375zm0 -2.359375q0.515625 0 0.75 -0.265625q0.25 -0.265625 0.328125 -0.671875q0.078125 -0.40625 0.078125 -0.84375l0 -7.265625q0 -0.453125 -0.078125 -0.84375q-0.078125 -0.40625 -0.328125 -0.671875q-0.234375 -0.265625 -0.75 -0.265625q-0.484375 0 -0.734375 0.265625q-0.234375 0.265625 -0.3125 0.671875q-0.078125 0.390625 -0.078125 0.84375l0 7.265625q0 0.4375 0.0625 0.84375q0.0625 0.40625 0.296875 0.671875q0.234375 0.265625 0.765625 0.265625zm6.604492 2.140625l0 -15.109375l2.34375 0l3.09375 7.28125l0 -7.28125l2.765625 0l0 15.109375l-2.25 0l-3.109375 -7.828125l0 7.828125l-2.84375 0z" fill-rule="nonzero"/><path fill="#000000" fill-opacity="0.0" d="m273.5013 539.5906l72.8504 0l0 50.078735l-72.8504 0z" fill-rule="evenodd"/><path fill="#000000" d="m286.7513 572.9105l-3.34375 -20.515625l2.390625 0l2.203125 14.734375l2.75 -14.65625l2.03125 0l2.78125 14.734375l2.15625 -14.8125l2.328125 0l-3.28125 20.515625l-2.078125 0l-2.859375 -15.203125l-2.890625 15.203125l-2.1875 0zm19.382782 0.203125q-1.71875 0 -2.65625 -0.671875q-0.9375 -0.671875 -1.3125 -1.96875q-0.359375 -1.3125 -0.359375 -3.203125l0 -3.34375q0 -1.953125 0.375 -3.25q0.375 -1.296875 1.328125 -1.953125q0.953125 -0.65625 2.625 -0.65625q1.84375 0 2.71875 0.765625q0.875 0.75 1.15625 2.1875q0.28125 1.4375 0.28125 3.4375l0 1.1875l-5.78125 0l0 2.9375q0 0.890625 0.15625 1.453125q0.171875 0.546875 0.53125 0.8125q0.375 0.265625 0.96875 0.265625q0.59375 0 0.90625 -0.28125q0.328125 -0.296875 0.4375 -0.84375q0.125 -0.546875 0.125 -1.28125l0 -0.890625l2.625 0l0 0.5625q0 2.203125 -0.9375 3.46875q-0.9375 1.265625 -3.1875 1.265625zm-1.625 -8.9375l3.125 0l0 -1.328125q0 -0.90625 -0.109375 -1.515625q-0.09375 -0.625 -0.421875 -0.9375q-0.3125 -0.328125 -1.0 -0.328125q-0.65625 0 -1.0 0.3125q-0.34375 0.296875 -0.46875 1.015625q-0.125 0.71875 -0.125 2.0l0 0.78125zm13.4756775 8.9375q-0.78125 0 -1.40625 -0.390625q-0.625 -0.390625 -1.078125 -0.875l0 1.0625l-2.703125 0l0 -20.515625l2.703125 0l0 7.046875q0.484375 -0.5625 1.15625 -0.96875q0.671875 -0.40625 1.609375 -0.40625q1.140625 0 1.8125 0.59375q0.671875 0.59375 1.0 1.5q0.328125 0.890625 0.421875 1.828125q0.109375 0.921875 0.109375 1.578125l0 3.546875q0 1.546875 -0.3125 2.921875q-0.296875 1.375 -1.09375 2.234375q-0.78125 0.84375 -2.21875 0.84375zm-0.5625 -2.125q0.71875 0 1.015625 -0.515625q0.3125 -0.53125 0.375 -1.40625q0.078125 -0.890625 0.078125 -1.953125l0 -3.546875q0 -0.921875 -0.109375 -1.6875q-0.09375 -0.765625 -0.421875 -1.21875q-0.328125 -0.46875 -1.03125 -0.46875q-0.53125 0 -1.0 0.234375q-0.46875 0.21875 -0.828125 0.5l0 9.40625q0.359375 0.265625 0.84375 0.46875q0.5 0.1875 1.078125 0.1875z" fill-rule="nonzero"/><path fill="#000000" fill-opacity="0.0" d="m643.6772 535.28345l72.8504 0l0 50.078735l-72.8504 0z" fill-rule="evenodd"/><path fill="#000000" d="m653.16156 568.60345l4.359375 -20.515625l2.75 0l4.390625 20.515625l-2.71875 0l-0.9375 -5.171875l-4.171875 0l-0.984375 5.171875l-2.6875 0zm4.046875 -7.21875l3.421875 0l-1.71875 -9.25l-1.703125 9.25zm9.523926 7.21875l0 -20.515625l5.09375 0q1.84375 0 2.9375 0.671875q1.109375 0.671875 1.609375 1.9375q0.515625 1.265625 0.515625 3.0625q0 1.625 -0.578125 2.8125q-0.5625 1.1875 -1.671875 1.84375q-1.109375 0.640625 -2.78125 0.640625l-2.265625 0l0 9.546875l-2.859375 0zm2.859375 -11.59375l1.328125 0q1.234375 0 1.9375 -0.28125q0.71875 -0.28125 1.015625 -0.96875q0.3125 -0.703125 0.3125 -1.96875q0 -1.46875 -0.21875 -2.25q-0.21875 -0.796875 -0.90625 -1.09375q-0.671875 -0.3125 -2.125 -0.3125l-1.34375 0l0 6.875zm9.454407 11.59375l0 -20.515625l2.8125 0l0 20.515625l-2.8125 0z" fill-rule="nonzero"/><path fill="#000000" fill-opacity="0.0" d="m282.0882 330.18896l54.551178 0l0 42.015747l-54.551178 0z" fill-rule="evenodd"/><path fill="#000000" d="m292.26007 357.10898l0 -15.109375l3.28125 0q1.6875 0 2.65625 0.515625q0.984375 0.515625 1.40625 1.546875q0.421875 1.015625 0.421875 2.546875l0 5.5625q0 1.59375 -0.421875 2.703125q-0.421875 1.09375 -1.359375 1.671875q-0.9375 0.5625 -2.53125 0.5625l-3.453125 0zm2.109375 -1.515625l1.203125 0q1.15625 0 1.640625 -0.4375q0.484375 -0.453125 0.578125 -1.3125q0.109375 -0.859375 0.109375 -2.0625l0 -4.921875q0 -1.171875 -0.15625 -1.890625q-0.140625 -0.734375 -0.65625 -1.0625q-0.5 -0.34375 -1.578125 -0.34375l-1.140625 0l0 12.03125zm7.722473 1.515625l0 -15.109375l3.46875 0q1.03125 0 1.78125 0.234375q0.765625 0.21875 1.265625 0.6875q0.5 0.453125 0.734375 1.171875q0.25 0.71875 0.25 1.6875q0 0.9375 -0.234375 1.625q-0.234375 0.671875 -0.71875 1.0625q-0.46875 0.390625 -1.203125 0.5q0.90625 0.21875 1.46875 0.71875q0.5625 0.484375 0.828125 1.265625q0.265625 0.765625 0.265625 1.84375q0 0.96875 -0.21875 1.78125q-0.21875 0.796875 -0.703125 1.359375q-0.46875 0.5625 -1.203125 0.875q-0.734375 0.296875 -1.75 0.296875l-4.03125 0zm2.109375 -1.515625l1.421875 0q1.421875 0 1.890625 -0.65625q0.484375 -0.65625 0.484375 -2.140625q0 -0.953125 -0.265625 -1.59375q-0.25 -0.640625 -0.796875 -0.96875q-0.546875 -0.328125 -1.484375 -0.328125l-1.25 0l0 5.6875zm0 -7.296875l1.25 0q0.890625 0 1.390625 -0.25q0.515625 -0.25 0.71875 -0.796875q0.203125 -0.5625 0.203125 -1.46875q0 -1.046875 -0.3125 -1.5q-0.3125 -0.46875 -0.984375 -0.59375q-0.671875 -0.125 -1.765625 -0.125l-0.5 0l0 4.734375z" fill-rule="nonzero"/><path fill="#000000" fill-opacity="0.0" d="m630.1795 328.56693l102.92914 0l0 42.015747l-102.92914 0z" fill-rule="evenodd"/><path fill="#000000" d="m643.9139 355.6588q-1.296875 0 -2.171875 -0.5625q-0.859375 -0.5625 -1.3125 -1.546875q-0.453125 -0.984375 -0.515625 -2.296875l1.859375 -0.5q0.0625 0.796875 0.25 1.546875q0.203125 0.75 0.640625 1.21875q0.453125 0.46875 1.25 0.46875q0.828125 0 1.25 -0.453125q0.421875 -0.453125 0.421875 -1.3125q0 -1.03125 -0.46875 -1.65625q-0.46875 -0.625 -1.1875 -1.25l-2.53125 -2.234375q-0.75 -0.65625 -1.109375 -1.421875q-0.34375 -0.78125 -0.34375 -1.921875q0 -1.65625 0.953125 -2.5625q0.953125 -0.921875 2.59375 -0.921875q0.890625 0 1.5625 0.234375q0.6875 0.21875 1.140625 0.703125q0.46875 0.484375 0.734375 1.234375q0.265625 0.734375 0.359375 1.71875l-1.78125 0.484375q-0.0625 -0.75 -0.234375 -1.375q-0.15625 -0.625 -0.578125 -1.0q-0.421875 -0.390625 -1.203125 -0.390625q-0.78125 0 -1.21875 0.421875q-0.4375 0.421875 -0.4375 1.25q0 0.6875 0.21875 1.140625q0.234375 0.4375 0.765625 0.90625l2.546875 2.234375q0.859375 0.75 1.515625 1.796875q0.65625 1.03125 0.65625 2.4375q0 1.125 -0.46875 1.9375q-0.46875 0.8125 -1.28125 1.25q-0.8125 0.421875 -1.875 0.421875zm8.090027 -0.015625q-1.28125 0 -1.96875 -0.5q-0.6875 -0.5 -0.96875 -1.453125q-0.265625 -0.96875 -0.265625 -2.359375l0 -2.46875q0 -1.4375 0.28125 -2.390625q0.28125 -0.953125 0.984375 -1.4375q0.703125 -0.484375 1.9375 -0.484375q1.359375 0 2.0 0.5625q0.640625 0.5625 0.84375 1.625q0.203125 1.046875 0.203125 2.515625l0 0.875l-4.25 0l0 2.171875q0 0.65625 0.125 1.0625q0.125 0.40625 0.390625 0.609375q0.265625 0.1875 0.703125 0.1875q0.4375 0 0.671875 -0.203125q0.234375 -0.21875 0.3125 -0.625q0.09375 -0.40625 0.09375 -0.9375l0 -0.65625l1.9375 0l0 0.40625q0 1.625 -0.6875 2.5625q-0.6875 0.9375 -2.34375 0.9375zm-1.203125 -6.59375l2.296875 0l0 -0.96875q0 -0.671875 -0.078125 -1.125q-0.078125 -0.46875 -0.3125 -0.6875q-0.21875 -0.234375 -0.734375 -0.234375q-0.484375 0 -0.734375 0.21875q-0.25 0.21875 -0.34375 0.75q-0.09375 0.53125 -0.09375 1.46875l0 0.578125zm6.119934 6.4375l0 -10.78125l2.0 0l0 1.53125q0.59375 -1.0 1.1875 -1.328125q0.59375 -0.328125 1.203125 -0.328125q0.0625 0 0.125 0q0.078125 0 0.1875 0.015625l0 2.203125q-0.21875 -0.09375 -0.515625 -0.15625q-0.28125 -0.078125 -0.578125 -0.078125q-0.46875 0 -0.859375 0.21875q-0.375 0.21875 -0.75 0.828125l0 7.875l-2.0 0zm7.3323975 0l-2.125 -10.78125l2.015625 0l1.328125 8.671875l1.34375 -8.671875l1.9375 0l-2.0625 10.78125l-2.4375 0zm5.917053 0l0 -10.78125l2.0 0l0 10.78125l-2.0 0zm0 -12.390625l0 -2.09375l2.0 0l0 2.09375l-2.0 0zm7.084778 12.546875q-1.328125 0 -2.015625 -0.53125q-0.671875 -0.546875 -0.90625 -1.515625q-0.234375 -0.96875 -0.234375 -2.25l0 -2.484375q0 -1.359375 0.234375 -2.3125q0.25 -0.96875 0.9375 -1.484375q0.6875 -0.515625 1.984375 -0.515625q1.171875 0 1.8125 0.390625q0.65625 0.375 0.890625 1.140625q0.25 0.75 0.25 1.875l0 0.625l-1.8125 0l0 -0.65625q0 -0.703125 -0.09375 -1.109375q-0.09375 -0.40625 -0.34375 -0.59375q-0.234375 -0.1875 -0.6875 -0.1875q-0.484375 0 -0.75 0.21875q-0.25 0.21875 -0.34375 0.75q-0.078125 0.53125 -0.078125 1.453125l0 3.390625q0 1.390625 0.265625 1.859375q0.265625 0.453125 0.9375 0.453125q0.5 0 0.734375 -0.234375q0.234375 -0.234375 0.296875 -0.65625q0.0625 -0.4375 0.0625 -0.96875l0 -0.875l1.8125 0l0 0.734375q0 1.09375 -0.25 1.875q-0.25 0.78125 -0.90625 1.203125q-0.640625 0.40625 -1.796875 0.40625zm7.7145996 0q-1.28125 0 -1.96875 -0.5q-0.6875 -0.5 -0.96875 -1.453125q-0.265625 -0.96875 -0.265625 -2.359375l0 -2.46875q0 -1.4375 0.28125 -2.390625q0.28125 -0.953125 0.984375 -1.4375q0.703125 -0.484375 1.9375 -0.484375q1.359375 0 2.0 0.5625q0.640625 0.5625 0.84375 1.625q0.203125 1.046875 0.203125 2.515625l0 0.875l-4.25 0l0 2.171875q0 0.65625 0.125 1.0625q0.125 0.40625 0.390625 0.609375q0.265625 0.1875 0.703125 0.1875q0.4375 0 0.671875 -0.203125q0.234375 -0.21875 0.3125 -0.625q0.09375 -0.40625 0.09375 -0.9375l0 -0.65625l1.9375 0l0 0.40625q0 1.625 -0.6875 2.5625q-0.6875 0.9375 -2.34375 0.9375zm-1.203125 -6.59375l2.296875 0l0 -0.96875q0 -0.671875 -0.078125 -1.125q-0.078125 -0.46875 -0.3125 -0.6875q-0.21875 -0.234375 -0.734375 -0.234375q-0.484375 0 -0.734375 0.21875q-0.25 0.21875 -0.34375 0.75q-0.09375 0.53125 -0.09375 1.46875l0 0.578125zm8.557373 6.59375q-1.3125 0 -2.125 -0.828125q-0.796875 -0.84375 -0.90625 -2.203125l1.65625 -0.5q0.15625 1.03125 0.5 1.546875q0.359375 0.5 1.046875 0.5q0.546875 0 0.828125 -0.296875q0.28125 -0.3125 0.28125 -0.84375q0 -0.453125 -0.21875 -0.828125q-0.203125 -0.375 -0.65625 -0.765625l-1.859375 -1.59375q-0.546875 -0.484375 -0.9375 -1.078125q-0.375 -0.59375 -0.375 -1.546875q0 -0.859375 0.34375 -1.4375q0.34375 -0.59375 0.96875 -0.90625q0.625 -0.3125 1.453125 -0.3125q1.296875 0 1.96875 0.84375q0.6875 0.828125 0.78125 2.0l-1.34375 0.5q-0.078125 -0.5625 -0.234375 -0.984375q-0.140625 -0.421875 -0.40625 -0.640625q-0.25 -0.234375 -0.6875 -0.234375q-0.484375 0 -0.78125 0.328125q-0.28125 0.3125 -0.28125 0.765625q0 0.28125 0.125 0.5625q0.125 0.265625 0.421875 0.515625l1.90625 1.765625q0.390625 0.34375 0.734375 0.765625q0.34375 0.40625 0.5625 0.9375q0.234375 0.515625 0.234375 1.203125q0 0.90625 -0.375 1.53125q-0.375 0.609375 -1.046875 0.921875q-0.671875 0.3125 -1.578125 0.3125z" fill-rule="nonzero"/><path fill="#ffffff" d="m639.4862 167.82587l-19.626038 28.847672l6.3149414 4.2992096l-21.224304 4.0342255l-4.0355225 -21.23108l6.3149414 4.299225l19.626099 -28.847672z" fill-rule="evenodd"/><path stroke="#000000" stroke-width="1.0" stroke-linejoin="round" stroke-linecap="butt" d="m639.4862 167.82587l-19.626038 28.847672l6.3149414 4.2992096l-21.224304 4.0342255l-4.0355225 -21.23108l6.3149414 4.299225l19.626099 -28.847672z" fill-rule="evenodd"/><path fill="#ffffff" d="m592.30304 237.1143l-19.027283 27.965988l6.3149414 4.299225l-21.22467 4.0339966l-4.0351562 -21.23085l6.3149414 4.2992096l19.027283 -27.966003z" fill-rule="evenodd"/><path stroke="#000000" stroke-width="1.0" stroke-linejoin="round" stroke-linecap="butt" d="m592.30304 237.1143l-19.027283 27.965988l6.3149414 4.299225l-21.22467 4.0339966l-4.0351562 -21.23085l6.3149414 4.2992096l19.027283 -27.966003z" fill-rule="evenodd"/><path fill="#ffffff" d="m348.5604 565.3916l19.626068 -28.847656l-6.314972 -4.2992554l21.224335 -4.0341797l4.035492 21.23108l-6.3149414 -4.2992554l-19.626068 28.847656z" fill-rule="evenodd"/><path stroke="#000000" stroke-width="1.0" stroke-linejoin="round" stroke-linecap="butt" d="m348.5604 565.3916l19.626068 -28.847656l-6.314972 -4.2992554l21.224335 -4.0341797l4.035492 21.23108l-6.3149414 -4.2992554l-19.626068 28.847656z" fill-rule="evenodd"/><path fill="#ffffff" d="m395.74356 496.10315l19.027313 -27.966003l-6.314972 -4.2991943l21.22467 -4.0339966l4.035187 21.230835l-6.314972 -4.2991943l-19.027283 27.966003z" fill-rule="evenodd"/><path stroke="#000000" stroke-width="1.0" stroke-linejoin="round" stroke-linecap="butt" d="m395.74356 496.10315l19.027313 -27.966003l-6.314972 -4.2991943l21.22467 -4.0339966l4.035187 21.230835l-6.314972 -4.2991943l-19.027283 27.966003z" fill-rule="evenodd"/><path fill="#ffffff" d="m347.9735 158.31236l19.626068 28.847656l-6.314972 4.299225l21.224365 4.03421l4.035492 -21.231064l-6.314972 4.2992096l-19.626038 -28.847672z" fill-rule="evenodd"/><path stroke="#000000" stroke-width="1.0" stroke-linejoin="round" stroke-linecap="butt" d="m347.9735 158.31236l19.626068 28.847656l-6.314972 4.299225l21.224365 4.03421l4.035492 -21.231064l-6.314972 4.2992096l-19.626038 -28.847672z" fill-rule="evenodd"/><path fill="#ffffff" d="m395.1567 227.60078l19.027283 27.966003l-6.3149414 4.2992096l21.22467 4.0339966l4.0351562 -21.23085l-6.3149414 4.299225l-19.027313 -27.966003z" fill-rule="evenodd"/><path stroke="#000000" stroke-width="1.0" stroke-linejoin="round" stroke-linecap="butt" d="m395.1567 227.60078l19.027283 27.966003l-6.3149414 4.2992096l21.22467 4.0339966l4.0351562 -21.23085l-6.3149414 4.299225l-19.027313 -27.966003z" fill-rule="evenodd"/><path fill="#ffffff" d="m638.89935 555.87805l-19.626038 -28.847656l6.3149414 -4.2991943l-21.224365 -4.0342407l-4.0354614 21.23108l6.3149414 -4.2991943l19.626038 28.847656z" fill-rule="evenodd"/><path stroke="#000000" stroke-width="1.0" stroke-linejoin="round" stroke-linecap="butt" d="m638.89935 555.87805l-19.626038 -28.847656l6.3149414 -4.2991943l-21.224365 -4.0342407l-4.0354614 21.23108l6.3149414 -4.2991943l19.626038 28.847656z" fill-rule="evenodd"/><path fill="#ffffff" d="m591.7162 486.58966l-19.027283 -27.966003l6.3149414 -4.299225l-21.22467 -4.0339966l-4.0351562 21.230835l6.3149414 -4.2991943l19.027283 27.966003z" fill-rule="evenodd"/><path stroke="#000000" stroke-width="1.0" stroke-linejoin="round" stroke-linecap="butt" d="m591.7162 486.58966l-19.027283 -27.966003l6.3149414 -4.299225l-21.22467 -4.0339966l-4.0351562 21.230835l6.3149414 -4.2991943l19.027283 27.966003z" fill-rule="evenodd"/></g></svg>